<svg id="Layer_1" data-name="Layer 1" xmlns="http://www.w3.org/2000/svg" viewBox="0 0 634.11 655.94"><defs><style>.cls-1{fill:#231f20;}</style></defs><path class="cls-1" d="M317.06,156.25c-34.26,0-66.19,31.43-66.19,31.43v90.69l66.19,37.1,66.18-37.1V187.68S351.31,156.25,317.06,156.25Z"/><polygon class="cls-1" points="396.83 296.28 317.06 340.32 237.28 296.28 195.68 335.8 195.68 515.72 317.06 607.59 438.43 515.72 438.43 335.8 396.83 296.28"/><polygon class="cls-1" points="204.43 231.26 111.76 176.94 118.11 68.1 82.69 46.1 76.35 189.5 169.01 243.82 169.01 275.49 106.01 317.6 106.01 571.6 141.01 541.6 141.43 331.16 204.43 289.05 204.43 231.26"/><polygon class="cls-1" points="128.08 236.66 35.65 182.47 43.89 22 8.48 0 0 194.9 92.67 249.21 92.63 269.93 7.61 326.76 7.61 655.94 42.61 625.94 43.03 340.32 128.05 283.49 128.08 236.66"/><polygon class="cls-1" points="429.68 231.26 522.35 176.94 516 68.1 551.42 46.1 557.76 189.5 465.1 243.82 465.1 275.49 528.1 317.6 528.1 571.6 493.1 541.6 492.68 331.16 429.68 289.05 429.68 231.26"/><polygon class="cls-1" points="506.03 236.66 598.46 182.47 590.22 22 625.63 0 634.11 194.9 541.44 249.21 541.48 269.93 626.5 326.76 626.5 655.94 591.5 625.94 591.08 340.32 506.06 283.49 506.03 236.66"/></svg>