<svg id="Layer_1" data-name="Layer 1" xmlns="http://www.w3.org/2000/svg" viewBox="0 0 203.19 448.37"><defs><style>.cls-1{fill:#e52622;}</style></defs><path class="cls-1" d="M269.81,178.15c-3.19,2.59-5.07,6-6.66,9.57-2.83,6.43-4.27,13.23-5.7,20.05-.31,1.49-.7,3-.87,4.5a6.17,6.17,0,0,0,5,7.11,5.34,5.34,0,0,0,1.24.2c4.18,0,7.77,2,11.59,3.29a6.92,6.92,0,0,1,3.47,2.87,47.14,47.14,0,0,0,8.82,8.86,11.52,11.52,0,0,0,4,2.32,4.54,4.54,0,0,0,.21-1.37c-.74-3.17.89-5,3.48-6.33.25-.12.5-.25.75-.35a2.77,2.77,0,0,1,.62,0c.62,2.79-2.05,5.86.64,8.78,1.12-.49,2.28-.92,3.35-1.5,3-1.62,3.63-1.53,6,1.1a4.45,4.45,0,0,1,.56,1.23c.85-.8,1.23-1.18,1.64-1.53,2.4-2,2.83-2,5.45-.45,1.19.71,2.32,1.61,4.07,1.09,1.19-2.74-.13-5.58-.14-8.43,4.92,2.07,5.26,2.57,5.16,7.63.69.48,1.28.11,1.87-.25a37.54,37.54,0,0,0,10.62-9.93,10,10,0,0,1,5.24-3.82c1.45-.47,2.83-1.19,4.29-1.63a44.62,44.62,0,0,1,4.45-1c.68-.13,1.39-.08,2.06-.23,4.56-1.08,6.54-4.06,5.49-8.67-1.32-5.83-2.78-11.64-4.32-17.42a42.7,42.7,0,0,0-2.35-6.24,32.73,32.73,0,0,0-2.58-4.77c-.92-1.38-2.1-2.58-3.39-4.14a8.78,8.78,0,0,1,2.13.76,23.27,23.27,0,0,1,3.79,3.26,87,87,0,0,1,7.22,9.18c4.81,7.55,8.72,15.52,10.36,24.46a10,10,0,0,1-.27,5.29c-1.93,5.59-1.88,5.62-7.52,6.73-3.28.65-6.56,1.3-9.85,1.88a19.31,19.31,0,0,0-11.6,6,36.55,36.55,0,0,1-8.11,7.17c-.29.18-.38.67-.67,1.23a5.65,5.65,0,0,0,1.2,0,4.83,4.83,0,0,0,1.15-.48c7.36-4.32,15.53-6,23.8-7.3,1.24-.2,2.46-.5,3.7-.68,3.08-.47,6.11-.54,8.9,1.23a5.23,5.23,0,0,0,1.94.75c6.19.84,12.16,3.05,18.5,3,2.61,0,3.55-.47,4.21-3a33.29,33.29,0,0,0,1-6.58c.46-8.39-.53-16.69-1.92-24.95a148.27,148.27,0,0,0-4.44-18.24,62.91,62.91,0,0,0-5.9-13.78,7.25,7.25,0,0,1-.43-1.07c.58-.78,1.08-.26,1.48,0a22.67,22.67,0,0,1,6.3,7.16,76.18,76.18,0,0,1,9,22.39,257.21,257.21,0,0,1,4.93,28.39,43.17,43.17,0,0,1-.44,13.32,6.86,6.86,0,0,1-1.54,3.33,48.43,48.43,0,0,1-7.88,6.84,2.86,2.86,0,0,1-2.78.25c-1.72-.55-3.44-1.12-5.15-1.69a150.88,150.88,0,0,0-25.1-6.2c-4.27-.64-8.57-1.2-12.9-.44a19.79,19.79,0,0,0-9.29,4.49c-1.05.88-2.06,2-1.19,3.71,2.15.47,4.35,0,6.56-.11,4.73-.18,9.47-.37,14.2-.36a17.64,17.64,0,0,1,10.53,3.52c2.82,2.05,5.72,4,8.41,6.2,8.52,7,16.93,14.08,25.43,21.08a14.37,14.37,0,0,1,5.44,9.1c.29,1.91.82,3.8,1,5.72.33,2.8-1,4.81-3.36,6.22-.6.35-1.24.63-1.85,1A43.1,43.1,0,0,0,390.76,317c-3.28,3.79-6.22,7.87-9.34,11.8a9,9,0,0,0-1.54,4.69c-.38,2.9-.62,5.82-.91,8.73-.91,9-1.8,18-2.72,27q-2,19.13-3.92,38.25c-1.25,12.34-2.45,24.68-3.71,37-1.27,12.48-2.6,24.94-3.87,37.42-.94,9.14-1.8,18.3-2.73,27.45-1.28,12.61-2.61,25.21-3.9,37.82q-1.41,13.72-2.76,27.45c-.65,6.51-1.26,13-1.91,19.54a12.54,12.54,0,0,1-.82,2.07c0-2.2,0-3.4,0-4.6.43-11.28.85-22.56,1.32-33.84.34-8.08.78-16.15,1.12-24.22.69-16.16,1.31-32.31,2-48.46,1-21.86,2-43.71,2.94-65.57.39-8.91.74-17.83,1.11-26.74q1-23.38,2-46.78a58.2,58.2,0,0,1,1.41-10.75c1.19-5.16,2.29-10.33,3.35-15.52a5.24,5.24,0,0,1,2.49-3.62c4.33-2.8,8.62-5.66,12.82-8.65a23.7,23.7,0,0,0,4.89-4.48c2.51-3.2,2.26-6.35-1-8.79-4-3-6.94-6.82-10.17-10.45A69.42,69.42,0,0,0,362.08,271a45.25,45.25,0,0,0-11.35-5.21,30.43,30.43,0,0,0-17.54-.15,12.92,12.92,0,0,0,1.09,1.86c3.44,3.91,7.29,7.26,12.28,9.12A20.52,20.52,0,0,1,351,279c5.7,3.95,7.94,10.45,5.57,16.91C351.1,310.69,347.43,326,342.68,341a17,17,0,0,0-.74,3.67c-1.22,14.16-2.36,28.32-3.6,42.48s-2.54,28-3.77,42.05c-.7,7.91-1.27,15.83-2,23.74-.95,11-2,21.93-2.93,32.89-.68,7.77-1.31,15.55-2,23.32-.75,8.61-1.53,17.21-2.27,25.81-.63,7.22-1.23,14.44-1.84,21.66q-1.44,17.08-2.89,34.15l-2.31,27.07c-.06.68-.12,1.35-.23,2.7a14.21,14.21,0,0,1-.51-6q.47-14.21,1.08-28.4c.38-8.78.85-17.54,1.22-26.31.41-9.75.72-19.5,1.14-29.25q1-24.43,2.15-48.87.47-10.44.89-20.88c.66-16.43,1.29-32.86,2-49.29s1.45-32.86,2.17-49.29c.28-6.4.57-12.81.81-19.21a23.77,23.77,0,0,1,1.38-6.94c2.69-7.61,5.33-15.24,8-22.85.5-1.44,1.17-2.82,1.79-4.22,4.38-9.81,3.3-17.67-3.76-25.46a39.32,39.32,0,0,0-10.66-8c-1,4.59.58,9,4.58,12.69.1,4.33-.72,8.71-1.25,13.11a321.87,321.87,0,0,1-5.78,32.48,135,135,0,0,1-9.31,28.09,31,31,0,0,1-4.13,7.16c-.38-.23-.64-.3-.77-.48-2.61-3.44-2.91-3.44-5.57-.07-.93.11-1.13-.7-1.46-1.25a95.91,95.91,0,0,1-8.83-20.69c-2.94-9.17-4.77-18.6-6.59-28s-2.93-19-4.06-28.54a18.82,18.82,0,0,1,0-2.13c4.18-3,5.05-7.37,5-12.48a11.28,11.28,0,0,0-2,.69,36.6,36.6,0,0,0-9.71,7.84c-6,7.16-7.36,14.88-3.58,23.7,3.17,7.41,5.53,15.16,8.45,22.68a55.57,55.57,0,0,1,3.54,19.13c.38,15.88,1.3,31.75,2,47.62q.48,10.86.93,21.72c.68,16.85,1.31,33.7,2,50.55.67,15.87,1.43,31.74,2.11,47.61.43,9.89.75,19.78,1.17,29.66.68,16,1.41,32,2.1,48,.22,5.15.35,10.3.5,15.46,0,.68-.08,1.36-.15,2.46a5.62,5.62,0,0,1-.7-1.41c-.63-6.94-1.21-13.88-1.82-20.82q-1.52-17.49-3.06-35c-.67-7.77-1.3-15.55-2-23.32-.72-8.33-1.47-16.66-2.19-25q-1-11.44-2-22.9-1.11-12.71-2.23-25.4-1-11.25-1.93-22.49-1.54-17.91-3.12-35.81c-.66-7.64-1.28-15.27-1.94-22.91-.73-8.47-1.5-16.93-2.24-25.4-.1-1.11-.24-2.22-.25-3.33a40.13,40.13,0,0,0-1.91-11.09q-5.28-17.81-10.69-35.59c-.52-1.72-1.22-3.4-1.9-5.07-3.46-8.53-.17-16.85,8.45-20.18,5.95-2.31,10.3-6.36,14.36-10.94-.28-.36-.4-.69-.6-.74a24.43,24.43,0,0,0-11.13-1A45.58,45.58,0,0,0,246.4,274c-5.34,4.5-10.6,9-14.76,14.72a19.81,19.81,0,0,1-3,2.85c-1,.92-2.2,1.73-3.16,2.73-2.39,2.52-2.56,5-.7,7.95a14.65,14.65,0,0,0,4.45,4.35c3.36,2.25,6.74,4.47,10.06,6.76,1.83,1.26,4,2.33,5.21,4.06s1.17,3.95,1.63,6c1,4.21,1.83,8.43,2.8,12.64a47.89,47.89,0,0,1,1,9.1c.31,9.75.78,19.49,1.2,29.24.31,7.1.66,14.2.95,21.3.4,9.61.74,19.22,1.15,28.83q1,23.59,2.14,47.19.48,10.86.94,21.72c.69,16.57,1.34,33.14,2.06,49.71.65,15,1.42,30.07,2,45.11.16,4,0,8.07,0,12.11a10.29,10.29,0,0,0,.52,4.38c.27-.61.59-1,.53-1.26-1.94-8.43-2.41-17-3.29-25.62-1-9.42-2-18.84-3-28.26-.95-9.15-1.84-18.3-2.77-27.44q-1.58-15.39-3.14-30.77c-.7-6.93-1.33-13.87-2-20.8q-1.34-13.31-2.72-26.61-1.08-10.38-2.16-20.78-2-19.34-3.95-38.66-1.86-18.51-3.68-37c-.51-5.13-1-10.26-1.57-15.38a6.78,6.78,0,0,0-1-3.11c-4-5.5-7.8-11.22-13.09-15.68a46.22,46.22,0,0,0-9.22-6.47,14.76,14.76,0,0,1-1.79-1.06,6.34,6.34,0,0,1-3-6.83,54.55,54.55,0,0,1,1.91-7.68,17.52,17.52,0,0,1,2.26-3.95,7.58,7.58,0,0,1,1.46-1.48c10.4-9.08,20.76-18.22,32.09-26.13,7.93-5.54,7-5.58,18.22-5.52,4.6,0,9.18.5,13.77.77.28,0,.56,0,.84,0,1,0,1.81-1.27,1.24-2.08a11.09,11.09,0,0,0-2.47-2.76,20.42,20.42,0,0,0-11.64-4c-5.63,0-11.08,1.07-16.54,2.18a201.28,201.28,0,0,0-22.89,6.42l-1.68.55a39.39,39.39,0,0,1-9.12-7.23,7.76,7.76,0,0,1-1.8-4.57,56.62,56.62,0,0,1,0-15.44,189.6,189.6,0,0,1,6.52-31.88,63.44,63.44,0,0,1,7.36-16.32,24.67,24.67,0,0,1,6.18-6.74c.51-.36,1.1-.62,1.71-1,.08.38.17.54.13.61-3.62,5.07-5.47,10.87-7.27,16.76a135.42,135.42,0,0,0-5.9,34.91,95.56,95.56,0,0,0,.33,10.43c.16,2.23.75,4.4,2.59,5.88A80.09,80.09,0,0,0,241,238.28a23.63,23.63,0,0,0,5.1-1.75,9,9,0,0,1,6.06-1c6.12,1.29,12.45,1.58,18.39,3.76,3.39,1.24,6.78,2.45,10.32,3.73.66-.32.64-.92.05-1.5-2.7-2.62-5.49-5.15-8.13-7.82a8.93,8.93,0,0,0-4.32-2.41c-3.77-1-7.58-1.76-11.38-2.6-2.85-.62-5.7-1.2-8.67-1.83-.86-2.16-1.68-4.21-2.49-6.27a7.69,7.69,0,0,1-.05-4.53c2.43-11.7,7.89-21.94,15.2-31.25A18.5,18.5,0,0,1,269.81,178.15ZM284,243.93c-.65-.49-1.22-1-1.82-1.33-.12-.08-.5.06-.6.21a.71.71,0,0,0,0,.66C282.13,244.18,282.77,244.89,284,243.93Z" transform="translate(-204.95 -172.16)"/></svg>